<svg xmlns="http://www.w3.org/2000/svg" viewBox="0 0 100 100"><rect x="42" y="8" width="16" height="22" rx="3" fill="#2D2A5D" stroke="#2D2A5D" stroke-width="2" stroke-linejoin="round" transform="rotate(0 50 50)"/><rect x="42" y="8" width="16" height="22" rx="3" fill="#2D2A5D" stroke="#2D2A5D" stroke-width="2" stroke-linejoin="round" transform="rotate(45 50 50)"/><rect x="42" y="8" width="16" height="22" rx="3" fill="#2D2A5D" stroke="#2D2A5D" stroke-width="2" stroke-linejoin="round" transform="rotate(90 50 50)"/><rect x="42" y="8" width="16" height="22" rx="3" fill="#2D2A5D" stroke="#2D2A5D" stroke-width="2" stroke-linejoin="round" transform="rotate(135 50 50)"/><rect x="42" y="8" width="16" height="22" rx="3" fill="#2D2A5D" stroke="#2D2A5D" stroke-width="2" stroke-linejoin="round" transform="rotate(180 50 50)"/><rect x="42" y="8" width="16" height="22" rx="3" fill="#2D2A5D" stroke="#2D2A5D" stroke-width="2" stroke-linejoin="round" transform="rotate(225 50 50)"/><rect x="42" y="8" width="16" height="22" rx="3" fill="#2D2A5D" stroke="#2D2A5D" stroke-width="2" stroke-linejoin="round" transform="rotate(270 50 50)"/><rect x="42" y="8" width="16" height="22" rx="3" fill="#2D2A5D" stroke="#2D2A5D" stroke-width="2" stroke-linejoin="round" transform="rotate(315 50 50)"/><path fill-rule="evenodd" d="M50 20a30 30 0 1 0 .01 0zM50 38a12 12 0 1 1-.01 0z" fill="#2D2A5D"/></svg>
