<svg xmlns="http://www.w3.org/2000/svg" viewBox="0 0 100 100"><path d="M50 50L50 10A40 40 0 0 1 84.6 30Z" fill="#E5484D" stroke="#2D2A5D" stroke-width="3" stroke-linejoin="round"/><path d="M50 50L84.6 30A40 40 0 0 1 84.6 70Z" fill="#FFFFFF" stroke="#2D2A5D" stroke-width="3" stroke-linejoin="round"/><path d="M50 50L84.6 70A40 40 0 0 1 50 90Z" fill="#2B59C3" stroke="#2D2A5D" stroke-width="3" stroke-linejoin="round"/><path d="M50 50L50 90A40 40 0 0 1 15.4 70Z" fill="#E5484D" stroke="#2D2A5D" stroke-width="3" stroke-linejoin="round"/><path d="M50 50L15.4 70A40 40 0 0 1 15.4 30Z" fill="#FFFFFF" stroke="#2D2A5D" stroke-width="3" stroke-linejoin="round"/><path d="M50 50L15.4 30A40 40 0 0 1 50 10Z" fill="#2B59C3" stroke="#2D2A5D" stroke-width="3" stroke-linejoin="round"/><circle cx="50" cy="50" r="6" fill="#FFC233" stroke="#2D2A5D" stroke-width="3" stroke-linejoin="round"/><circle cx="50" cy="50" r="40" fill="none" stroke="#2D2A5D" stroke-width="3" stroke-linejoin="round"/></svg>
